<svg width="22" height="22" viewBox="0 0 22 22" fill="none" xmlns="http://www.w3.org/2000/svg">
<path d="M21.9945 22V21.9991H22V13.9306C22 9.98339 21.1502 6.94281 16.5357 6.94281C14.3174 6.94281 12.8288 8.16014 12.221 9.31423H12.1568V7.31131H7.78162V21.9991H12.3374V14.7262C12.3374 12.8113 12.7004 10.9596 15.0718 10.9596C17.4084 10.9596 17.4432 13.145 17.4432 14.8491V22H21.9945Z" fill="white"/>
<path d="M0.363037 7.31226H4.92435V22H0.363037V7.31226Z" fill="white"/>
<path d="M2.64182 0C1.18341 0 0 1.18342 0 2.64183C0 4.10025 1.18341 5.30842 2.64182 5.30842C4.10023 5.30842 5.28365 4.10025 5.28365 2.64183C5.28273 1.18342 4.09932 0 2.64182 0V0Z" fill="white"/>
</svg>
